<?xml version="1.0" encoding="utf-8"?>
<!-- Generator: Adobe Illustrator 23.0.0, SVG Export Plug-In . SVG Version: 6.00 Build 0)  -->
<svg version="1.1" id="Layer_1" xmlns="http://www.w3.org/2000/svg" xmlns:xlink="http://www.w3.org/1999/xlink" x="0px" y="0px"
	 viewBox="140 100 300 400" style="enable-background:new 0 0 960 560;" xml:space="preserve">
<style type="text/css">
	.st0{fill:#7AC943;}
	.st1{fill:#F7931E;}
	.st2{fill:#FCEE21;}
	.st3{fill:#FBB03B;}
	.st4{fill:#FFFF00;}
	.st5{fill:none;}
	.st6{fill:#006837;}
	.st7{fill:#00A99D;}
</style>
<g>
	<path class="st0" d="M298.24,129.44c-1.53-0.04-3.24,0-4.24,0v350.12c3,0,7.47-0.07,11.43-0.3
		c86.39-4.87,163.33-77.89,163.33-174.69C469.01,208.57,391.44,131.74,298.24,129.44z M434.24,221.05
		c6.43,10.82,11.53,22.23,15.32,34.22c3.47,10.95,5.75,22.13,6.8,33.56c0.27,2.9,0.35,5.82,0.63,8.72c0.11,1.16-0.29,1.93-1.33,1.92
		c-8.66-0.02-17.33,0.53-25.99,0.53c-3.47,0-6.93,0-10.4,0c-0.5,0-0.99,0-1.67,0c-0.74-30-5.51-54.07-15.42-79.54
		c0.64-0.05,1.11-0.37,1.58-0.37c9.44-0.01,18.88-0.11,28.32-0.15C433.15,219.93,433.7,220.15,434.24,221.05z M405.35,299.46
		c-1.19-0.01-2.37,0.54-3.56,0.54c-12.91,0-25.81,0-38.71,0c-0.58,0-1.17,0-1.93,0c-0.37-30-2.73-53.47-8.11-79.58
		c0.67-0.03,1.11-0.34,1.55-0.34c11.31,0,22.62-0.11,33.93-0.15c1.12-0.01,1.65,0.26,2.08,1.33c6.08,15.02,10.29,30.51,12.83,46.51
		c1.43,9.01,2.29,18.05,2.7,27.17c0.05,1,0.05,2.26,0.13,3.26C406.31,298.89,406.06,299.47,405.35,299.46z M406.13,313.15
		c-0.19,9.3-1.09,18.09-2.49,27.28c-2.51,16.5-6.79,32.31-13.08,47.78c-0.41,1.01-0.91,1.23-1.99,1.23
		c-11.31-0.05-22.61-0.09-33.92-0.09c-1.61,0-1.58-0.04-1.33-1.63c1.56-9.62,3.31-19.23,4.62-28.89
		c1.58-11.65,2.47-23.38,2.79-35.14c0.11-4.14,0.25-7.38,0.38-11.52c0.01-0.31,0.07-0.17,0.13-0.17c0.63,0,1.21,0,1.8,0
		c13.72,0,27.45,0,41.17,0C406.2,312,406.18,311.09,406.13,313.15z M425.58,209.27c-0.06,0.16-0.12-3.27-0.19,1.73
		c-0.48,0-0.96,0-1.45,0c-4.92,0-9.84-1.29-14.77-1.26c-3.67,0.02-7.34-0.46-11.01-0.51c-0.5-0.01-1.17-1.04-1.46-1.58
		c-2.09-3.93-4-8.13-6.18-12.02c-6.13-10.97-13.33-21.27-22.03-30.37c-3.48-3.64-7.25-7.06-10.91-10.54
		c-0.26-0.24-0.64,0.26-0.74-0.15C384.77,166.3,407.63,185,425.58,209.27z M330.07,149.69c10.52,5.28,19.78,12.32,27.98,20.71
		c10.13,10.36,18.36,22.11,25.06,34.94c0.44,0.85,0.89,1.69,1.33,2.54c0.04,0.08,0.03,0.18,0.07,0.52
		c-0.47,0.04-0.86,0.09-1.24,0.09c-10.44,0.01-20.87,0-31.31,0.02c-1.08,0.01-1.66-0.15-1.96-1.41c-2.41-9.88-5.45-19.55-9.25-28.99
		c-4.29-10.63-9.32-20.86-16.35-29.99c-0.23-0.31-0.42-0.66-0.45-1.23C325.98,147.81,328.07,148.69,330.07,149.69z M349.8,297.3
		c0.07,1.38-0.42,1.66-1.7,1.65c-14-0.04-28-0.03-42-0.01c-2.04,0-4.08,0.07-6.11,0.15c-0.85,0.04-1.98-0.4-1.98-1.09
		c0-2.19-1.02-4.37-1.02-6.56c0-10.67,0-21.34,0-32.01c0-12.58,0-25.17,0-37.76c0-1.86,1-1.86,2.86-1.86
		c13.05,0,26.58,0.01,39.63-0.03c1.18,0,1.86,0.33,2.1,1.5c2.48,11.92,4.54,23.94,5.66,36.07c0.8,8.7,1.43,17.44,1.98,26.16
		C349.52,288.1,349.58,292.71,349.8,297.3z M299,143.43c0-0.48,0.07-0.96,0.1-1.58c2.72,0.71,4.9,2.1,6.99,3.62
		c5.51,4,9.63,9.25,13.29,14.91c5.43,8.38,9.55,17.4,12.83,26.79c2.24,6.4,4.1,12.94,6.12,19.42c0.16,0.52,0.26,1.04,0.44,1.82
		c-0.61,0.03-1,0.07-1.4,0.07c-12.31,0.01-24.63-0.01-36.93,0.03c-1.19,0-1.46-0.37-1.45-1.47C299.01,185.83,299,164.63,299,143.43z
		 M299,311.54c0-0.4,0.06,0.11,0.09-0.36c0.52-0.04,0.96,0.82,1.4,0.82c15.78,0,31.56,0,47.33,0c1.95,0,2.03-0.89,1.93,0.99
		c-0.59,11.6-1.02,22.75-1.91,34.32c-1.06,13.82-3.19,27.29-6.04,40.86c-0.22,1.06-0.61,1.27-1.68,1.26
		c-13.22-0.04-26.45-0.1-39.66-0.05c-1.14,0-1.49-0.34-1.49-1.49C299,362.45,299,336.98,299,311.54z M301.6,466.34
		c-0.72,0.36-1.49,0.63-2.45,1.03c-0.06-0.72-0.14-1.23-0.14-1.75c-0.01-21.15,0-42.31-0.03-63.47c0-1.16,0.28-1.55,1.52-1.55
		c12.27,0.05,24.54,0.02,36.8,0.02c0.44,0,0.87,0.06,1.79,0.12c-2.35,7.27-4.43,14.25-6.85,21.12
		c-3.67,10.43-8.27,20.43-14.65,29.53C313.32,457.49,308.45,462.99,301.6,466.34z M323.57,462.4c0.26-0.67,0.31-0.94,0.46-1.15
		c1.24-1.77,2.57-3.48,3.75-5.29c1.5-2.3,2.89-4.67,4.31-7.01c5.73-9.49,9.66-19.77,13.1-30.24c1.83-5.58,3.29-11.28,4.87-16.93
		c0.24-0.85,0.55-1.17,1.47-1.16c10.67,0.03,21.33,0.01,32,0.01c0.3,0,0.6,0.08,1.19,0.16c-11.38,22.07-25.94,41.03-47.02,54.35
		C333.31,457.92,328.7,460.25,323.57,462.4z M357.28,455.34c-0.09-0.1-0.18-0.21-0.27-0.32c0.85-0.76,1.69-1.53,2.54-2.28
		c11.55-10.25,21.03-22.2,28.84-35.48c2.97-5.05,5.52-10.35,8.32-15.51c0.27-0.49,0.96-1.08,1.46-1.08
		c8.89-0.07,17.78-0.05,26.67-0.04c0.17,0,0.34,0.06,0.93,0.17C407.67,425.27,384.92,443.38,357.28,455.34z M456.92,311.98
		c-0.32,9.41-1.6,18.7-3.63,27.87c-0.91,4.08-1.78,8.21-3.06,12.18c-4.08,12.73-9.3,24.96-16.28,36.4
		c-0.29,0.47-1.17,0.82-1.78,0.82c-6.61,0.06-13.22,0.02-19.83,0.04c-3.16,0.01-6.33,0.09-9.49,0.13c-0.16,0.01-0.33-0.1-0.67-0.21
		c9.9-25.37,14.69-51.7,15.42-78.95c0.58-0.04,1.07-0.09,1.55-0.09c12.03,0,24.07,0,36.11,0.01
		C457.02,310.19,456.99,310.19,456.92,311.98z"/>
	<g>
		<path class="st1" d="M293.46,262.38c-23.53,0.23-42.05,19.17-41.96,42.71c0.1,23.19,18.5,42.17,42.5,42.2v-84.9
			C294,262.39,293.54,262.38,293.46,262.38z"/>
		<path class="st2" d="M284.6,256.48c0.81,2.75,2.15,3.91,5.25,3.52c1.27-0.16,2.15-0.26,4.15-0.33V134.85
			c-2,2.88-2.96,5.9-4.04,8.97c-7.7,21.85-10.14,44.55-10.67,67.27C279.52,226.59,280.27,241.73,284.6,256.48z"/>
		<path class="st2" d="M225.34,233.34c9.35,13.86,19.81,26.78,33.08,37.19c2.17,1.7,3.67,2.27,5.97-0.07
			c3.15-3.2,7.09-5.56,11.37-6.98c2.93-0.97,3.4-2.41,2.8-5.3c-3.61-17.47-11.16-33.34-19.99-48.61
			c-11.19-19.36-24.04-37.47-41.47-51.88c-3.96-3.28-8.18-6.19-13.15-7.75c-5.25-1.66-8.41,0.23-9.37,5.64
			c-0.28,1.56-0.24,3.19-0.26,3.45c-0.04,5.21,0.7,8.98,1.62,12.72C201.5,194.3,212.5,214.29,225.34,233.34z"/>
		<path class="st2" d="M137,255.89c30.78,23.71,65.89,36.7,104.08,41.97c7.35,0.25,7.32,0.24,9.39-6.43
			c0.57-1.83,1.28-3.62,2.08-5.37c3.93-8.54,3.94-8.54-3.49-14.42c-0.38-0.3-0.76-0.59-1.14-0.87
			c-28.1-20.34-59.46-32.85-93.57-38.53c-8.04-1.33-16.25-2.03-24.26,0.6c-5.91,1.94-7.17,5.15-4.24,10.64
			C128.55,248.52,132.57,252.48,137,255.89z"/>
		<path class="st2" d="M173.37,352.16c25.15-3.71,49.49-10.18,71.88-22.67c7.31-4.08,7.26-4.16,5.01-11.91
			c-0.22-0.77-0.24-1.64-0.63-2.31c-2.07-3.56,1.39-9.37-3.53-11.25c-3.89-1.49-8.52-1.08-12.82-1.42
			c-1.75-0.14-3.52-0.02-6.15-0.02c-20.72,0.67-41.73,4.57-62.29,11.09c-14.69,4.66-29.01,10.17-41.32,19.75
			c-3.71,2.89-8.43,6.1-7.06,11.6c1.35,5.37,6.88,6.18,11.53,7.22C143.11,355.62,158.29,354.39,173.37,352.16z"/>
		<path class="st2" d="M240.08,401.86c13.26-15.95,24.92-32.89,32.24-52.51c1.04-2.79,1.1-4.49-2.02-6
			c-3.89-1.89-7.38-4.69-9.92-8.2c-2.21-3.05-4.21-3.15-6.98-1.11c-1.67,1.23-3.58,2.13-5.25,3.36
			c-29.03,21.42-51.26,48.5-66.91,80.95c-2.92,6.05-5.13,12.43-5.34,18.45c-0.14,8.02,2.82,10.41,9.89,8.78
			c5.54-1.28,10.41-4.06,15.08-7.16C215.94,428.4,228.57,415.71,240.08,401.86z"/>
		<path class="st2" d="M285.1,348.94c-4.13-1.3-5.69,0.19-7.13,3.76c-9.19,22.83-11.81,46.77-12.44,71.06
			c-0.09,8.35,0.13,16.68,1.11,24.96c1.23,10.36,2.81,20.66,7.63,30.09c4.57,8.93,10.21,9.31,15.98,1.21
			c1.32-1.86,1.75-3.81,3.75-5.81v-124.3C290,350.03,287.85,349.8,285.1,348.94z"/>
		<path class="st3" d="M195.21,388.65c16.16-22.54,34.17-43.21,58.3-57.71c1.11-0.67,2.45-1.32,1.24-2.88
			c-1.09-1.41-1.98-0.04-2.8,0.48c-19.9,12.67-42.02,19.29-64.87,24c-3.1,0.64-6.59,0.31-9.23,2.28
			c-13.15,9.78-25.66,20.26-34.61,34.3c-1.9,2.98-3.45,6.14-3.7,9.36c-0.05,3.53,1.27,5.54,4.5,6.33c2.14,0.53,4.46,0.76,6.66,0.61
			c15.02-1.01,28.44-7.07,41.65-13.62C193.54,391.21,194.39,389.8,195.21,388.65z"/>
		<path class="st3" d="M156.18,203.81c5.85,11.36,14.05,20.96,22.81,30.12c0.91,0.95,1.94,1.57,3.22,1.95
			c23.88,7.23,46.23,17.68,66.71,32.01c0.36-0.28,0.73-0.56,1.09-0.84c-17.44-17.06-31.24-36.77-42.44-58.37
			c-0.83-1.6-1.85-2.9-3.39-3.92c-9.2-6.15-18.71-11.71-29.06-15.68c-4.94-1.89-10.01-3.44-15.4-3.23c-5.42,0.21-7.47,2.6-6.89,8.02
			C153.22,197.41,154.56,200.67,156.18,203.81z"/>
		<path class="st3" d="M270.09,362c-1.13,1.95-1.7,2.86-2.2,3.81c-8.62,16.4-19.1,31.62-32.1,44.71
			c-7.68,7.73-11.85,16.31-13.17,26.74c-0.28,2.22-0.78,4.42-1.04,6.64c-0.82,7.01-1.48,14.04-0.15,21.06
			c1.72,9.02,6.37,10.93,13.87,5.76c3.19-2.2,5.91-4.91,8.45-7.8c6.69-7.62,12-16.17,16.97-24.97c1.47-2.6,2.15-5.17,2.09-8.18
			c-0.35-18.97,1.5-37.74,5.58-56.29C269.13,370.09,270.88,366.85,270.09,362z"/>
		<path class="st3" d="M245.45,184.64c12.52,16.93,22.76,35.14,30.41,54.79c0.47,1.21,0.4,2.84,2,3.44c1.3-0.93,0.52-2.08,0.4-3.06
			c-2.61-22.24-2.12-44.42,1.4-66.54c0.22-1.39,0.46-3,0-4.25c-4.67-12.47-10.01-24.64-18.75-34.9c-2.77-3.25-5.95-7.12-10.8-5.86
			c-5.04,1.31-5.9,6.33-6.87,10.68c-3,13.51-1.92,27.06-0.23,40.61C243.26,181.62,244.31,183.09,245.45,184.64z"/>
		<path class="st3" d="M150.89,310.04c6.59,1.87,12.73,1.78,19.12-0.65c4.16-1.58,8.64-2.3,12.97-3.41
			c14.55-3.75,29.51-4.92,44.31-6.95c-22.81-4.89-44.33-12.76-64.85-23.45c-1.66-0.86-3.18-2.13-5.3-1.98
			c-12.15,0.84-24.3,1.78-35.68,6.58c-3.9,1.65-8.64,3.22-8.93,8.35c-0.28,5.01,4.04,7.39,7.65,9.66
			C129.62,304.13,140.26,307.04,150.89,310.04z"/>
	</g>
</g>
</svg>
