<?xml version="1.0" encoding="utf-8"?>
<!-- Generator: Adobe Illustrator 16.0.0, SVG Export Plug-In . SVG Version: 6.00 Build 0)  -->
<!DOCTYPE svg PUBLIC "-//W3C//DTD SVG 1.1//EN" "http://www.w3.org/Graphics/SVG/1.1/DTD/svg11.dtd">
<svg version="1.1" id="Layer_1" xmlns="http://www.w3.org/2000/svg" xmlns:xlink="http://www.w3.org/1999/xlink" x="0px" y="0px"
	 width="1200px" height="800px" viewBox="0 0 1200 800" enable-background="new 0 0 1200 800" xml:space="preserve">
<g>
	<g>
		<path fill="#93278F" stroke="#93278F" stroke-width="4" stroke-miterlimit="10" d="M103.841,377.722h1.529l46.583,51.171
			l45.888-51.171h1.669v95.53h-18.772v-35.459c0-6.396,0.695-16.547,0.695-16.547s-5.701,8.344-10.151,13.349l-18.772,20.997h-1.808
			l-18.772-20.997c-4.45-5.005-10.15-13.349-10.15-13.349s0.695,10.15,0.695,16.547v35.459h-18.633V377.722z"/>
		<path fill="#93278F" stroke="#93278F" stroke-width="4" stroke-miterlimit="10" d="M248.31,377.861h1.669l43.246,95.391h-20.441
			l-4.45-10.707h-38.379l-4.45,10.707h-18.772L248.31,377.861z M261.381,446.276l-6.813-16.409
			c-2.781-6.675-5.701-16.964-5.701-16.964s-2.781,10.289-5.562,16.964l-6.813,16.409H261.381z"/>
		<path fill="#93278F" stroke="#93278F" stroke-width="4" stroke-miterlimit="10" d="M370.254,473.252h-22.526l-15.574-23.918
			c-1.808,0.279-3.754,0.418-5.562,0.418h-6.675v23.5h-19.467v-94.556h26.142c26.42,0,42.272,12.653,42.272,35.737
			c0,14.739-6.536,24.057-18.216,29.341L370.254,473.252z M326.035,432.788c15.852,0,22.805-5.007,22.805-18.355
			c0-13.35-7.231-18.634-22.805-18.634h-6.119v36.989H326.035z"/>
		<path fill="#93278F" stroke="#93278F" stroke-width="4" stroke-miterlimit="10" d="M377.064,425.975
			c0-27.951,19.745-48.392,48.251-48.392c15.435,0,26.56,4.172,34.347,13.071l-13.21,13.071c-4.728-4.867-10.151-8.621-21.136-8.621
			c-17.104,0-28.228,13.21-28.228,30.87c0,17.658,11.403,31.147,31.287,31.147c6.118,0,13.627-1.113,18.494-3.477V439.74h-22.804
			v-17.104h40.603v40.882c-5.422,4.45-19.05,10.985-36.292,10.985C397.505,474.503,377.064,453.924,377.064,425.975z"/>
		<path fill="#93278F" stroke="#93278F" stroke-width="4" stroke-miterlimit="10" d="M509.3,377.861h1.669l43.246,95.391h-20.441
			l-4.45-10.707h-38.379l-4.45,10.707h-18.772L509.3,377.861z M522.371,446.276l-6.813-16.409
			c-2.781-6.675-5.701-16.964-5.701-16.964s-2.781,10.289-5.562,16.964l-6.813,16.409H522.371z"/>
		<path fill="#93278F" stroke="#93278F" stroke-width="4" stroke-miterlimit="10" d="M561.439,377.722h1.529l46.583,51.171
			l45.888-51.171h1.669v95.53h-18.772v-35.459c0-6.396,0.695-16.547,0.695-16.547s-5.702,8.344-10.151,13.349l-18.771,20.997h-1.808
			l-18.773-20.997c-4.45-5.005-10.151-13.349-10.151-13.349s0.696,10.15,0.696,16.547v35.459h-18.633V377.722z"/>
		<path fill="#93278F" stroke="#93278F" stroke-width="4" stroke-miterlimit="10" d="M875.539,429.311
			c-4.728-4.449-11.263-12.932-11.263-12.932s1.39,10.429,1.39,17.242v39.631h-18.215v-95.391h1.946l47.696,44.775
			c4.588,4.312,11.124,12.933,11.124,12.933s-1.253-10.707-1.253-17.242v-39.63h18.217v95.391h-1.947L875.539,429.311z"/>
		<path fill="#93278F" stroke="#93278F" stroke-width="4" stroke-miterlimit="10" d="M939.358,378.696h29.063
			c29.062,0,49.781,19.328,49.781,47.279c0,27.949-20.58,47.277-49.781,47.277h-29.063V378.696z M967.447,456.148
			c20.997,0,30.593-12.516,30.593-30.174c0-17.66-9.596-30.176-30.593-30.176h-8.621v60.35H967.447z"/>
		<path fill="#93278F" stroke="#93278F" stroke-width="4" stroke-miterlimit="10" d="M1025.845,425.975
			c0-27.951,21.691-48.53,48.946-48.53c27.256,0,48.947,20.579,48.947,48.53c0,27.949-21.691,48.528-48.947,48.528
			C1047.536,474.503,1025.845,453.924,1025.845,425.975z M1103.715,425.975c0-17.66-11.682-31.148-28.924-31.148
			c-17.241,0-28.923,13.488-28.923,31.148c0,17.658,11.682,31.147,28.923,31.147
			C1092.033,457.122,1103.715,443.633,1103.715,425.975z"/>
	</g>
	<path fill="#FF7BAC" d="M727.324,487.059c-2.838,1.271-5.481,2.258-8.013,3.009c7.462,10.559,15.33,20.849,23.486,30.945
		c2.2,2.724,2.596,2.762,4.704,0.033c6.46-8.358,13.013-16.649,19.23-25.182c16.407-22.509,31.155-46.035,42.43-71.572
		c-15.968,15.607-30.454,28.31-45.089,39.563C753.157,472.244,741.153,480.863,727.324,487.059z"/>
	<path fill="#FF7BAC" d="M724.781,464.612c14.532-4.844,27.321-12.934,37.916-20.209c4.799-3.292,9.822-6.968,15.358-11.232
		c13.426-10.345,26.834-21.86,40.636-34.909c1.835-6.768,3.12-13.684,3.607-20.804c3.287-48.19-38.178-87.587-86.16-82.002
		c-38.717,4.506-68.099,37.461-68.488,76.525c0.422,4.391,0.631,8.813,1.307,13.163c2.76,17.755,9.349,34.257,17.292,50.199
		c5.474,10.992,11.497,21.631,17.946,31.99c1.495,0.224,3.013,0.352,4.599,0.352C713.479,467.685,718.407,466.734,724.781,464.612z
		 M745.157,329.481c20.954-0.03,38.067,17.167,38.044,38.231c-0.025,20.989-16.907,37.76-38.006,37.767
		c-21.151,0.004-37.996-16.704-38.031-37.726C707.126,346.668,724.156,329.516,745.157,329.481z"/>
	<path fill="#FFFFFF" d="M818.691,398.262c-13.802,13.049-27.21,24.564-40.636,34.909c-5.536,4.265-10.56,7.94-15.358,11.232
		c-10.595,7.275-23.384,15.365-37.916,20.209c-6.374,2.122-11.303,3.072-15.987,3.072c-1.586,0-3.104-0.128-4.599-0.352
		c4.811,7.725,9.86,15.297,15.116,22.734c2.531-0.751,5.175-1.738,8.013-3.009c13.829-6.195,25.833-14.814,36.749-23.204
		c14.635-11.253,29.121-23.955,45.089-39.563c0.064-0.147,0.131-0.291,0.197-0.437C813.033,415.497,816.322,407.007,818.691,398.262
		z"/>
	<path fill-rule="evenodd" clip-rule="evenodd" fill="#93278F" d="M860.535,348.546c3.535-1.161,7.071-2.306,10.599-3.495
		c0.587-0.199,1.299-0.431,1.645-0.883c2.91-3.81,5.752-7.675,8.788-11.759c-6.797-0.648-13.379-1.275-20.045-1.909
		c0.762-2.661,2.209-3.917,4.857-4.127c6.975-0.553,13.936-1.26,20.887-2.051c0.946-0.108,1.895-0.913,2.674-1.589
		c3.725-3.226,7.305-6.625,11.128-9.724c1.22-0.989,3.005-1.348,4.591-1.801c1.099-0.315,1.814,0.325,1.478,1.491
		c-0.483,1.646-0.847,3.443-1.792,4.811c-2.398,3.479-4.947,6.875-7.725,10.053c-1.332,1.527-1.712,2.908-1.441,4.815
		c0.837,5.975,1.58,11.961,2.297,17.953c0.32,2.662-0.257,3.484-3.112,4.75c-2.243-5.851-4.478-11.699-6.755-17.643
		c-0.311,0.123-0.58,0.149-0.73,0.299c-3.366,3.259-6.781,6.474-10.023,9.851c-0.802,0.834-1.339,2.189-1.456,3.361
		c-0.35,3.433-0.422,6.896-0.635,10.929c-2.034-3.013-3.784-5.61-5.669-8.406c-1.507,2.024-2.88,3.926-4.312,5.782
		c-15.762,20.428-33.4,39.154-51.775,57.214c-16.492,16.208-33.634,31.676-52.113,45.604c-11.44,8.622-23.202,16.756-36.413,22.52
		c-5.086,2.219-10.324,3.925-15.906,4.292c-8.29,0.543-13.929-3.167-16.21-11.144c-1.078-3.769-1.397-7.753-2.099-11.849
		c3.382,1.302,6.135,2.671,9.048,3.422c8.454,2.184,16.711,0.582,24.795-2.023c14.062-4.537,26.64-11.996,38.807-20.179
		c5.302-3.564,10.487-7.316,15.59-11.172c19.785-14.938,38.262-31.407,55.926-48.771c10.982-10.795,21.603-21.959,32.376-32.962
		c0.491-0.504,0.934-1.05,1.738-1.959c-3.147-1.152-6.068-2.226-8.989-3.294C860.551,348.817,860.541,348.682,860.535,348.546z"/>
</g>
</svg>
